<?xml version="1.0" encoding="UTF-8"?>
<!DOCTYPE svg PUBLIC "-//W3C//DTD SVG 1.1//EN" "http://www.w3.org/Graphics/SVG/1.1/DTD/svg11.dtd">
<!-- Creator: CorelDRAW -->
<svg xmlns="http://www.w3.org/2000/svg" xml:space="preserve" width="111.162mm" height="15.6582mm" version="1.1" style="shape-rendering:geometricPrecision; text-rendering:geometricPrecision; image-rendering:optimizeQuality; fill-rule:evenodd; clip-rule:evenodd"
viewBox="0 0 2498.09 351.88"
 xmlns:xlink="http://www.w3.org/1999/xlink"
 xmlns:xodm="http://www.corel.com/coreldraw/odm/2003">
 <defs>
  <style type="text/css">
   <![CDATA[
    .fil1 {fill:#2B2B2A}
    .fil0 {fill:#E31F25}
   ]]>
  </style>
 </defs>
 <g id="Katman_x0020_1">
  <metadata id="CorelCorpID_0Corel-Layer"/>
  <g id="_105553176824288">
   <path class="fil0" d="M271.68 153.77c-16.19,0 -29.77,10.89 -32.28,26.84l-17.28 109.95c-1.36,8.64 0.86,16.67 6.58,23.36 5.72,6.7 13.31,10.21 22.08,10.21l90.88 0c14,0 25.87,-9.74 28.07,-23.53l8.13 -51.04 23.06 0c39.48,0 53.62,0.12 93.15,0.13 1.24,0 2.29,-0.58 2.95,-1.62l16.24 -25.82c0.69,-1.11 0.73,-2.42 0.09,-3.57 -0.64,-1.16 -1.78,-1.82 -3.09,-1.82l-144.5 0c-0.69,-0.08 -1.39,-0.12 -2.1,-0.12l-47.47 0c-6.16,0 -11.27,4.45 -12.1,10.54l-1.84 13.42c-0.33,2.4 0.31,4.59 1.88,6.45 1.57,1.86 3.63,2.86 6.05,2.95l20.05 0.73c1.22,0.04 2.25,0.55 3.03,1.5 0.78,0.94 1.1,2.05 0.91,3.25l-4.43 28.21c-0.31,2 -1.99,3.46 -4.02,3.46l-55.28 0c-1.25,0 -2.34,-0.51 -3.16,-1.47 -0.82,-0.96 -1.13,-2.11 -0.93,-3.34l14.57 -92.54c0.32,-1.99 2,-3.4 4.02,-3.4l233.32 0.12c1.24,0 2.29,-0.58 2.95,-1.62l16.24 -25.82c0.7,-1.11 0.73,-2.42 0.09,-3.57 -0.64,-1.16 -1.78,-1.82 -3.1,-1.82 -87.58,0 -175.16,0.01 -262.74,0.01zm-66.25 32.81c-0.51,0.13 -1.07,0.19 -1.66,0.2 -1.39,0.14 -2.85,0.21 -4.38,0.21 -59.66,0.04 -119.18,-0.08 -179.11,-0.07 -1.24,0 -2.31,-0.58 -2.98,-1.63l-16.71 -25.82c-0.72,-1.11 -0.78,-2.42 -0.15,-3.57 0.62,-1.16 1.75,-1.82 3.06,-1.82l176.48 0c5.07,-1.18 9,-5.28 9.85,-10.65l18.89 -119.56c2.07,-13.11 14.58,-23.87 27.86,-23.87l97.26 0c13.29,0 23.02,10.74 21.05,23.87l-12.23 77.66c-1.97,13.13 -14.45,23.87 -27.74,23.87l-37.3 0 -0.24 0.16 -16.32 0c-15.51,0 -28.52,10.42 -30.93,25.72 -3.62,23.01 -10.47,33.22 -24.69,35.3zm-1.36 30.28c4.36,0.03 10.61,4.67 9.79,9.53l-2.74 16.29c-0.43,2.51 -1.49,4.7 -3.33,5.9 -0.96,0.64 -2.13,1.01 -3.54,1.01 -47.94,0 -95.82,0.09 -143.78,0.1 -1.24,0 -2.31,-0.58 -2.98,-1.62l-16.72 -25.82c-0.72,-1.11 -0.77,-2.42 -0.15,-3.57 0.62,-1.16 1.74,-1.82 3.06,-1.82 53.42,0 106.85,0 160.27,0l0.05 0 0.07 0zm94.5 -125.65l-55.05 0c-2.09,0 -3.4,-1.69 -3.07,-3.8l8.11 -51.69c0.33,-2.1 2.44,-3.8 4.53,-3.8l55.05 0c2.09,0 3.4,1.7 3.07,3.8l-8.11 51.69c-0.33,2.1 -2.45,3.8 -4.53,3.8z"/>
   <path class="fil1" d="M1271.01 134.61l-12.49 0c-5.58,0 -12.11,5.6 -13.05,11.18l-3.1 16.77c-0.93,5.58 3.73,11.18 9.32,11.18l12.44 0 -13.64 77.52c-2.95,16.8 10.87,33.54 27.63,33.54l67.08 0c5.58,0 12.07,-5.59 13.04,-11.18l3.42 -19.56c0.98,-5.58 -3.73,-11.18 -9.31,-11.18l-39.12 0c-2.79,0 -5.16,-2.82 -4.65,-5.59l10.55 -58.68c0.5,-2.77 3.73,-5.59 6.51,-5.59l39.13 0c5.59,0 12.02,-5.61 13.05,-11.18l3.1 -16.76c1.03,-5.58 -3.73,-11.18 -9.31,-11.18l-39.13 0c-2.78,0 -5.16,-2.82 -4.66,-5.59l8.07 -44.72c2.02,-11.14 -2.79,-16.77 -13.96,-16.77l-22.37 0c-11.16,0 -17.59,5.62 -19.56,16.77l-8.98 51.02zm-531.83 -67.79c-11.18,0 -24.23,11.18 -26.09,22.36l-31.67 178.86c-1.86,11.19 2.8,16.77 13.98,16.77l25.14 0c11.19,0 17.71,-5.58 19.57,-16.77l9 -50.3c0.32,-2.8 3.73,-5.59 6.52,-5.59l81.05 0c16.77,0 36.34,-16.77 39.43,-33.53l13.67 -78.26c3.1,-16.76 -10.87,-33.53 -27.64,-33.53l-122.97 0zm23.28 106.2c-2.79,0 -5.28,-2.79 -4.65,-5.59l9.93 -55.89c0,-2.8 3.73,-5.59 6.52,-5.59l50.31 0c3.11,0 5.28,2.49 4.66,5.59l-9.94 55.89c-0.62,2.8 -3.41,5.59 -6.52,5.59l-50.31 0zm186 -50.31c11.18,0 17.7,-5.59 19.56,-16.77l3.11 -16.76c1.86,-11.18 -2.8,-16.77 -13.98,-16.77l-22.35 0c-11.19,0 -17.7,5.59 -19.57,16.77l-3.11 16.76c-1.86,11.18 2.8,16.77 13.97,16.77l22.36 0zm-28.57 162.09c11.18,0 17.7,-5.58 19.56,-16.77l20.81 -117.37c1.85,-11.18 -2.8,-16.76 -13.98,-16.76l-22.36 0c-11.18,0 -17.7,5.59 -19.57,16.76l-20.8 117.37c-1.85,11.19 2.79,16.77 13.98,16.77l22.35 0zm79.18 0c11.19,0 17.7,-5.58 19.57,-16.77l32.61 -184.44c1.86,-11.18 -2.8,-16.77 -13.98,-16.77l-22.36 0c-11.17,0 -17.69,5.59 -19.56,16.77l-32.61 184.44c-1.86,11.19 2.8,16.77 13.98,16.77l22.35 0zm108.69 -41.92c-3.11,0 -4.66,-2.79 -4.66,-5.59l10.56 -58.68c0.62,-3.11 3.1,-5.59 6.52,-5.59l50.3 0c3.1,0 5.28,2.48 4.65,5.59l-10.55 58.68c-0.62,2.79 -3.42,5.59 -6.52,5.59l-50.3 0zm71.11 41.92c16.77,0 36.34,-16.77 39.44,-33.54l14.59 -83.83c3.11,-16.77 -10.87,-33.53 -27.64,-33.53l-106.19 0c-16.76,0 -36.34,16.76 -39.44,33.53l-14.6 83.83c-3.1,16.77 10.87,33.54 27.64,33.54l106.19 0zm423.24 -206.8c0.93,-5.59 -3.72,-11.18 -9.31,-11.18l-128.56 0c-16.77,0 -36.33,16.77 -39.44,33.53l-26.39 150.91c-3.1,16.77 10.87,33.54 27.64,33.54l111.78 0c16.77,0 36.34,-16.77 39.44,-33.54l13.67 -78.24c1.86,-11.18 -7.15,-22.36 -18.32,-22.36l-64.29 0c-5.59,0 -12.42,5.59 -13.35,11.18l-2.79 16.77c-0.94,5.59 3.42,11.18 9,11.18l22.35 0c2.8,0 5.28,2.8 4.66,5.58l-7.45 41.92c-0.31,2.79 -3.73,5.59 -6.52,5.59l-50.3 0c-2.8,0 -5.28,-2.79 -4.67,-5.59l7.15 -39.12 15.21 -86.64c0,-2.8 3.73,-5.59 6.53,-5.59l97.82 0c5.59,0 12.1,-5.59 13.04,-11.17l3.1 -16.77zm61.17 164.88c-2.79,0 -4.96,-2.79 -4.66,-5.59l1.55 -8.38c0.62,-2.79 3.73,-5.59 6.52,-5.59l50.31 0c2.48,0 5.27,2.8 4.65,5.59l-1.55 8.38c-0.62,2.79 -3.73,5.59 -6.52,5.59l-50.31 0zm125.14 -75.45c3.1,-16.77 -10.87,-33.53 -27.64,-33.53l-111.78 0c-5.59,0 -12.11,5.59 -13.04,11.18l-3.11 16.76c-0.93,5.59 3.72,11.18 9.31,11.18l83.84 0c2.8,0 4.97,2.79 4.66,5.59l-0.93 5.59c-0.63,2.8 -4.04,5.58 -6.83,5.58l-78.25 0c-16.77,0 -36.33,16.77 -39.44,33.53l-4.65 27.94c-3.11,16.77 10.86,33.54 27.63,33.54l117.39 0c11.17,0 24.22,-11.18 26.08,-22.35l16.76 -95.02zm117.38 5.59c11.17,0 17.7,-5.59 19.56,-16.77l1.24 -5.59c1.86,-11.18 -2.8,-16.76 -13.97,-16.76l-72.66 0c-11.18,0 -24.23,11.18 -26.4,22.35l-19.56 111.78c-1.87,11.19 2.79,16.77 13.97,16.77l22.35 0c11.18,0 17.7,-5.58 19.57,-16.77l15.84 -89.42c0.3,-2.8 3.72,-5.59 6.51,-5.59l33.54 0zm73.59 69.86c-2.8,0 -4.97,-2.79 -4.66,-5.59l1.56 -8.38c0.62,-2.79 3.72,-5.59 6.52,-5.59l50.29 0c2.49,0 5.28,2.8 4.67,5.59l-1.56 8.38c-0.62,2.79 -3.73,5.59 -6.52,5.59l-50.31 0zm125.14 -75.45c3.1,-16.77 -10.87,-33.53 -27.64,-33.53l-111.78 0c-5.6,0 -12.11,5.59 -13.04,11.18l-3.11 16.76c-0.93,5.59 3.73,11.18 9.31,11.18l83.84 0c2.79,0 4.97,2.79 4.65,5.59l-0.93 5.59c-0.62,2.8 -4.04,5.58 -6.83,5.58l-78.25 0c-16.77,0 -36.33,16.77 -39.44,33.53l-4.66 27.94c-3.1,16.77 10.87,33.54 27.64,33.54l117.37 0c11.18,0 24.22,-11.18 26.09,-22.35l16.77 -95.02zm71.41 75.45c-3.1,0 -4.65,-2.79 -4.65,-5.59l10.55 -58.68c0.62,-3.11 3.11,-5.59 6.53,-5.59l50.3 0c3.11,0 5.29,2.48 4.67,5.59l-10.56 58.68c-0.62,2.79 -3.41,5.59 -6.52,5.59l-50.31 0zm-6.2 67.07c-5.59,0 -12.12,5.6 -13.04,11.19l-3.43 19.56c-0.92,5.59 3.43,11.18 9.02,11.18l72.66 0c16.77,0 36.64,-16.77 39.44,-33.53l12.1 -67.08 2.79 -16.75 13.66 -78.26c2.18,-11.17 -7.14,-22.35 -18.32,-22.35l-117.38 0c-16.77,0 -36.33,16.76 -39.43,33.53l-14.6 83.83c-3.11,16.77 10.87,33.54 27.64,33.54l78.26 0c2.79,0 4.97,2.8 4.34,5.59l-2.48 13.98c-0.63,2.8 -3.42,5.58 -6.53,5.58l-44.71 0zm265.49 -136.93c3.11,0 5.29,2.48 4.67,5.59l-2.18 11.18c-0.3,2.8 -3.72,5.58 -6.51,5.58l-50.31 0c-2.79,0 -4.97,-2.79 -4.66,-5.58l2.18 -11.18c0.62,-2.8 3.42,-5.59 6.51,-5.59l50.31 0zm-125.45 78.24c-3.11,16.77 10.86,33.54 27.63,33.54l111.79 0c5.59,0 12.11,-5.58 13.05,-11.18l3.42 -19.56c0.93,-5.59 -3.73,-11.18 -9.32,-11.18l-83.84 0c-3.42,0 -4.96,-2.17 -4.65,-5.59l0.62 -2.79c0.62,-3.11 3.42,-5.28 6.52,-5.6l78.25 0c16.77,0 36.65,-16.77 39.44,-33.54l4.97 -27.94c3.1,-16.77 -10.87,-33.53 -27.63,-33.53l-106.19 0c-16.77,0 -36.34,16.76 -39.44,33.53l-14.6 83.83z"/>
  </g>
 </g>
</svg>
